<?xml version="1.0" encoding="UTF-8"?>
<!DOCTYPE svg PUBLIC "-//W3C//DTD SVG 1.1//EN" "http://www.w3.org/Graphics/SVG/1.1/DTD/svg11.dtd">
<svg xmlns="http://www.w3.org/2000/svg" version="1.1" width="512px" height="512px" style="shape-rendering:geometricPrecision; text-rendering:geometricPrecision; image-rendering:optimizeQuality; fill-rule:evenodd; clip-rule:evenodd" xmlns:xlink="http://www.w3.org/1999/xlink">
<g><path style="opacity:0.99" fill="#ffffff" d="M 402.5,209.5 C 398.535,214.543 394.202,219.377 389.5,224C 384.273,227.772 378.939,231.272 373.5,234.5C 367.788,237.096 361.788,238.762 355.5,239.5C 355.5,242.167 355.5,244.833 355.5,247.5C 355.5,258.833 355.5,270.167 355.5,281.5C 355.5,286.5 355.5,291.5 355.5,296.5C 355.667,310.171 355.5,323.837 355,337.5C 354.634,339.452 353.801,341.118 352.5,342.5C 349.946,343.388 347.279,343.721 344.5,343.5C 337.852,335.854 330.519,328.854 322.5,322.5C 318.148,319.143 313.815,315.809 309.5,312.5C 309.489,310.983 308.823,309.816 307.5,309C 294.957,299.23 281.624,290.73 267.5,283.5C 263.291,281.229 258.958,279.229 254.5,277.5C 244.524,271.499 233.858,266.832 222.5,263.5C 200.708,256.275 178.374,251.608 155.5,249.5C 155.984,292.227 155.484,334.894 154,377.5C 150.686,384.149 145.519,388.649 138.5,391C 123.167,391.667 107.833,391.667 92.5,391C 84.3333,388.167 78.8333,382.667 76,374.5C 75.5,332.168 75.3333,289.835 75.5,247.5C 65.1667,247.167 59.8333,241.833 59.5,231.5C 49.1613,231.666 38.828,231.5 28.5,231C 20.3333,228.167 14.8333,222.667 12,214.5C 11.3333,188.5 11.3333,162.5 12,136.5C 14.8333,128.333 20.3333,122.833 28.5,120C 38.828,119.5 49.1613,119.334 59.5,119.5C 59.1769,111.981 62.5102,106.814 69.5,104C 90.1667,103.667 110.833,103.333 131.5,103C 214.941,100.932 284.941,69.5991 341.5,9C 345.5,7 349.5,7 353.5,9C 354.126,9.75044 354.626,10.5838 355,11.5C 355.5,44.8317 355.667,78.165 355.5,111.5C 385.883,116.717 404.383,134.383 411,164.5C 413.485,180.571 410.652,195.571 402.5,209.5 Z M 339.5,199.5 C 297.562,201.972 262.562,218.639 234.5,249.5C 221.722,245.055 208.722,241.389 195.5,238.5C 195.5,196.5 195.5,154.5 195.5,112.5C 250.278,99.8658 298.112,74.5325 339,36.5C 339.5,90.8323 339.667,145.166 339.5,199.5 Z M 177.5,115.5 C 178.833,135.155 179.5,155.155 179.5,175.5C 179.167,195.5 178.833,215.5 178.5,235.5C 169.939,233.68 161.273,232.513 152.5,232C 126.835,231.5 101.169,231.333 75.5,231.5C 75.5,194.167 75.5,156.833 75.5,119.5C 101.169,119.667 126.835,119.5 152.5,119C 161.076,118.555 169.409,117.388 177.5,115.5 Z M 385.5,203.5 C 375.638,201.184 365.638,199.851 355.5,199.5C 355.333,175.831 355.5,152.164 356,128.5C 388.705,139.239 400.371,161.239 391,194.5C 389.303,197.672 387.47,200.672 385.5,203.5 Z M 35.5,135.5 C 43.5,135.5 51.5,135.5 59.5,135.5C 59.5,162.167 59.5,188.833 59.5,215.5C 51.4931,215.666 43.4931,215.5 35.5,215C 31,214.5 28.5,212 28,207.5C 27.3333,186.167 27.3333,164.833 28,143.5C 28.6804,138.989 31.1804,136.323 35.5,135.5 Z M 339.5,232.5 C 339.5,237.5 339.5,242.5 339.5,247.5C 317.474,249.355 297.808,257.021 280.5,270.5C 275.68,268.926 271.347,266.593 267.5,263.5C 287.649,244.658 311.649,234.325 339.5,232.5 Z M 91.5,247.5 C 107.514,247.343 123.514,247.676 139.5,248.5C 139.667,288.168 139.5,327.835 139,367.5C 138.594,370.494 137.094,372.661 134.5,374C 128.244,375.103 121.911,375.603 115.5,375.5C 109.089,375.603 102.756,375.103 96.5,374C 93.9057,372.661 92.4057,370.494 92,367.5C 91.5,327.501 91.3333,287.501 91.5,247.5 Z M 339.5,281.5 C 339.5,286.5 339.5,291.5 339.5,296.5C 334.708,297.627 331.041,300.293 328.5,304.5C 324.5,301.5 320.5,298.5 316.5,295.5C 322.452,288.024 330.119,283.357 339.5,281.5 Z M 309.5,312.5 C 313.815,315.809 318.148,319.143 322.5,322.5C 317.627,328.03 313.127,327.696 309,321.5C 308.264,318.408 308.431,315.408 309.5,312.5 Z"/></g>
<g><path style="opacity:0.99" fill="#141a69" d="M 103.5,143.5 C 119.503,143.333 135.503,143.5 151.5,144C 153.333,144.5 154.5,145.667 155,147.5C 155.667,150.167 155.667,152.833 155,155.5C 154.5,157.333 153.333,158.5 151.5,159C 135.5,159.667 119.5,159.667 103.5,159C 100.484,157.471 99.1506,154.971 99.5,151.5C 99.2824,147.934 100.616,145.268 103.5,143.5 Z"/></g>
<g><path style="opacity:0.991" fill="#141a69" d="M 103.5,191.5 C 119.503,191.333 135.503,191.5 151.5,192C 153.333,192.5 154.5,193.667 155,195.5C 155.667,198.167 155.667,200.833 155,203.5C 154.5,205.333 153.333,206.5 151.5,207C 135.5,207.667 119.5,207.667 103.5,207C 100.484,205.471 99.1506,202.971 99.5,199.5C 99.2824,195.934 100.616,193.268 103.5,191.5 Z"/></g>
<g><path style="opacity:0.983" fill="#c3a1fb" d="M 339.5,199.5 C 339.5,210.5 339.5,221.5 339.5,232.5C 311.649,234.325 287.649,244.658 267.5,263.5C 266.127,263.657 264.793,263.49 263.5,263C 253.712,258.435 244.045,253.935 234.5,249.5C 262.562,218.639 297.562,201.972 339.5,199.5 Z"/></g>
<g><path style="opacity:0.98" fill="#c2a0fa" d="M 355.5,199.5 C 365.638,199.851 375.638,201.184 385.5,203.5C 378.483,214.353 368.483,220.686 355.5,222.5C 355.5,214.833 355.5,207.167 355.5,199.5 Z"/></g>
<g><path style="opacity:0.983" fill="#c4a2fc" d="M 402.5,209.5 C 458.197,232.85 490.364,274.516 499,334.5C 503.469,397.056 479.969,445.889 428.5,481C 385.216,506.1 339.883,510.434 292.5,494C 230.481,466.819 198.148,419.319 195.5,351.5C 195.249,319.257 204.249,289.923 222.5,263.5C 233.858,266.832 244.524,271.499 254.5,277.5C 233.759,303.436 225.259,333.102 229,366.5C 237.34,416.507 265.507,449.674 313.5,466C 362.198,478.285 403.698,466.118 438,429.5C 468.371,391.261 474.705,349.261 457,303.5C 439.697,267.619 411.864,244.619 373.5,234.5C 378.939,231.272 384.273,227.772 389.5,224C 394.202,219.377 398.535,214.543 402.5,209.5 Z M 339.5,281.5 C 339.5,286.5 339.5,291.5 339.5,296.5C 334.708,297.627 331.041,300.293 328.5,304.5C 324.5,301.5 320.5,298.5 316.5,295.5C 322.452,288.024 330.119,283.357 339.5,281.5 Z M 355.5,281.5 C 370.529,284.691 380.362,293.691 385,308.5C 388.95,332.938 379.283,349.271 356,357.5C 355.667,366.167 355.333,374.833 355,383.5C 353.134,390.347 348.968,392.18 342.5,389C 341.283,387.352 340.45,385.519 340,383.5C 339.333,372.5 339.333,361.5 340,350.5C 340.53,347.415 342.03,345.082 344.5,343.5C 347.279,343.721 349.946,343.388 352.5,342.5C 366.716,338.086 372.882,328.419 371,313.5C 368.751,305.088 363.584,299.421 355.5,296.5C 355.5,291.5 355.5,286.5 355.5,281.5 Z M 309.5,312.5 C 313.815,315.809 318.148,319.143 322.5,322.5C 317.627,328.03 313.127,327.696 309,321.5C 308.264,318.408 308.431,315.408 309.5,312.5 Z M 344.5,400.5 C 350.326,399.489 353.826,401.822 355,407.5C 355.887,412.072 355.22,416.405 353,420.5C 346.493,424.258 342.159,422.592 340,415.5C 338.625,409.471 340.125,404.471 344.5,400.5 Z"/></g>
<g><path style="opacity:0.987" fill="#c3a1fb" d="M 339.5,247.5 C 339.5,258.833 339.5,270.167 339.5,281.5C 330.119,283.357 322.452,288.024 316.5,295.5C 304.396,287.132 292.396,278.798 280.5,270.5C 297.808,257.021 317.474,249.355 339.5,247.5 Z"/></g>
<g><path style="opacity:0.993" fill="#c3a1fb" d="M 355.5,247.5 C 395.811,251.901 424.977,272.234 443,308.5C 461.024,356.731 451.191,398.231 413.5,433C 381.74,456.514 347.074,461.848 309.5,449C 259.446,425.739 237.946,386.573 245,331.5C 248.495,313.515 255.995,297.515 267.5,283.5C 281.624,290.73 294.957,299.23 307.5,309C 308.823,309.816 309.489,310.983 309.5,312.5C 308.431,315.408 308.264,318.408 309,321.5C 313.127,327.696 317.627,328.03 322.5,322.5C 330.519,328.854 337.852,335.854 344.5,343.5C 342.03,345.082 340.53,347.415 340,350.5C 339.333,361.5 339.333,372.5 340,383.5C 340.45,385.519 341.283,387.352 342.5,389C 348.968,392.18 353.134,390.347 355,383.5C 355.333,374.833 355.667,366.167 356,357.5C 379.283,349.271 388.95,332.938 385,308.5C 380.362,293.691 370.529,284.691 355.5,281.5C 355.5,270.167 355.5,258.833 355.5,247.5 Z M 309.5,312.5 C 313.815,315.809 318.148,319.143 322.5,322.5C 317.627,328.03 313.127,327.696 309,321.5C 308.264,318.408 308.431,315.408 309.5,312.5 Z M 344.5,400.5 C 340.125,404.471 338.625,409.471 340,415.5C 342.159,422.592 346.493,424.258 353,420.5C 355.22,416.405 355.887,412.072 355,407.5C 353.826,401.822 350.326,399.489 344.5,400.5 Z"/></g>
<g><path style="opacity:0.97" fill="#c1a0f9" d="M 339.5,296.5 C 339.666,302.842 339.5,309.175 339,315.5C 335.965,312.13 332.632,309.13 329,306.5C 328.536,305.906 328.369,305.239 328.5,304.5C 331.041,300.293 334.708,297.627 339.5,296.5 Z"/></g>
<g><path style="opacity:0.971" fill="#c4a2fb" d="M 355.5,296.5 C 363.584,299.421 368.751,305.088 371,313.5C 372.882,328.419 366.716,338.086 352.5,342.5C 353.801,341.118 354.634,339.452 355,337.5C 355.5,323.837 355.667,310.171 355.5,296.5 Z"/></g>
</svg>
